G04 #@! TF.FileFunction,Copper,L1,Top,Signal*
%FSLAX46Y46*%
G04 Gerber Fmt 4.6, Leading zero omitted, Abs format (unit mm)*
G04 Created by KiCad (PCBNEW 4.0.5+dfsg1-4) date Mon Jan 29 19:16:24 2018*
%MOMM*%
%LPD*%
G01*
G04 APERTURE LIST*
%ADD10C,0.100000*%
%ADD11C,1.000000*%
%ADD12C,1.600000*%
%ADD13C,3.500000*%
%ADD14C,0.250000*%
G04 APERTURE END LIST*
D10*
D11*
X160200000Y-99000000D03*
X160200000Y-100778000D03*
X160200000Y-97222000D03*
D12*
X140881100Y-120116600D03*
X140881100Y-117576600D03*
X156121100Y-120116600D03*
X140881100Y-115036600D03*
X140881100Y-112496600D03*
X140881100Y-109956600D03*
X140881100Y-107416600D03*
X140881100Y-104876600D03*
X140881100Y-102336600D03*
X140881100Y-99796600D03*
X140881100Y-97256600D03*
X140881100Y-94716600D03*
X140881100Y-92176600D03*
X156121100Y-117576600D03*
X156121100Y-115036600D03*
X156121100Y-112496600D03*
X156121100Y-109956600D03*
X156121100Y-107416600D03*
X156121100Y-104876600D03*
X156121100Y-102336600D03*
X156121100Y-99796600D03*
X156121100Y-97256600D03*
X156121100Y-94716600D03*
X156121100Y-92176600D03*
X160200000Y-106670000D03*
X160200000Y-104130000D03*
X160200000Y-112800000D03*
X160200000Y-110260000D03*
X160200000Y-115340000D03*
D13*
X160600000Y-119000000D03*
D12*
X160200000Y-92200000D03*
X160200000Y-94740000D03*
X160200000Y-89660000D03*
D13*
X146200000Y-90600000D03*
D14*
X160200000Y-99000000D02*
X159400000Y-99000000D01*
X143903400Y-112496600D02*
X140881100Y-112496600D01*
X152800000Y-103600000D02*
X143903400Y-112496600D01*
X157200000Y-103600000D02*
X152800000Y-103600000D01*
X158000000Y-102800000D02*
X157200000Y-103600000D01*
X158000000Y-100400000D02*
X158000000Y-102800000D01*
X159400000Y-99000000D02*
X158000000Y-100400000D01*
X160200000Y-106670000D02*
X159070000Y-106670000D01*
X160200000Y-101600000D02*
X160200000Y-100778000D01*
X158200000Y-103600000D02*
X160200000Y-101600000D01*
X158200000Y-105800000D02*
X158200000Y-103600000D01*
X159070000Y-106670000D02*
X158200000Y-105800000D01*
X160200000Y-97222000D02*
X158695700Y-97222000D01*
X158695700Y-97222000D02*
X158200000Y-97717700D01*
X160200000Y-112800000D02*
X160400000Y-112800000D01*
X160400000Y-112800000D02*
X162200000Y-111000000D01*
X162200000Y-111000000D02*
X162200000Y-96800000D01*
X162200000Y-96800000D02*
X161400000Y-96000000D01*
X161400000Y-96000000D02*
X159200000Y-96000000D01*
X159200000Y-96000000D02*
X158200000Y-97000000D01*
X158200000Y-97000000D02*
X158200000Y-97717700D01*
X158200000Y-97717700D02*
X156121100Y-99796600D01*
X160200000Y-92200000D02*
X160066598Y-92200000D01*
X160066598Y-92200000D02*
X157666598Y-89800000D01*
X157666598Y-89800000D02*
X155800000Y-89800000D01*
X155800000Y-89800000D02*
X154400000Y-91200000D01*
X154400000Y-91200000D02*
X154400000Y-98075500D01*
X154400000Y-98075500D02*
X156121100Y-99796600D01*
X156121100Y-99796600D02*
X156196600Y-99796600D01*
X160200000Y-115340000D02*
X159660000Y-115340000D01*
X159660000Y-115340000D02*
X157800000Y-117200000D01*
X157800000Y-117200000D02*
X157800000Y-118437700D01*
X157800000Y-118437700D02*
X156121100Y-120116600D01*
X156144500Y-120140000D02*
X156121100Y-120116600D01*
X160200000Y-89660000D02*
X158660000Y-89660000D01*
X153000000Y-92757700D02*
X140881100Y-104876600D01*
X153000000Y-90800000D02*
X153000000Y-92757700D01*
X154800000Y-89000000D02*
X153000000Y-90800000D01*
X158000000Y-89000000D02*
X154800000Y-89000000D01*
X158660000Y-89660000D02*
X158000000Y-89000000D01*
M02*
