G04 #@! TF.FileFunction,Copper,L2,Bot,Signal*
%FSLAX46Y46*%
G04 Gerber Fmt 4.6, Leading zero omitted, Abs format (unit mm)*
G04 Created by KiCad (PCBNEW 4.0.5+dfsg1-4) date Mon Jan 29 19:16:24 2018*
%MOMM*%
%LPD*%
G01*
G04 APERTURE LIST*
%ADD10C,0.100000*%
%ADD11C,1.000000*%
%ADD12C,1.600000*%
%ADD13C,3.500000*%
%ADD14C,0.254000*%
G04 APERTURE END LIST*
D10*
D11*
X160200000Y-99000000D03*
X160200000Y-100778000D03*
X160200000Y-97222000D03*
D12*
X140881100Y-120116600D03*
X140881100Y-117576600D03*
X156121100Y-120116600D03*
X140881100Y-115036600D03*
X140881100Y-112496600D03*
X140881100Y-109956600D03*
X140881100Y-107416600D03*
X140881100Y-104876600D03*
X140881100Y-102336600D03*
X140881100Y-99796600D03*
X140881100Y-97256600D03*
X140881100Y-94716600D03*
X140881100Y-92176600D03*
X156121100Y-117576600D03*
X156121100Y-115036600D03*
X156121100Y-112496600D03*
X156121100Y-109956600D03*
X156121100Y-107416600D03*
X156121100Y-104876600D03*
X156121100Y-102336600D03*
X156121100Y-99796600D03*
X156121100Y-97256600D03*
X156121100Y-94716600D03*
X156121100Y-92176600D03*
X160200000Y-106670000D03*
X160200000Y-104130000D03*
X160200000Y-112800000D03*
X160200000Y-110260000D03*
X160200000Y-115340000D03*
D13*
X160600000Y-119000000D03*
D12*
X160200000Y-92200000D03*
X160200000Y-94740000D03*
X160200000Y-89660000D03*
D13*
X146200000Y-90600000D03*
D14*
G36*
X144850771Y-88576916D02*
X144179274Y-89247242D01*
X143815415Y-90123513D01*
X143814587Y-91072325D01*
X144176916Y-91949229D01*
X144847242Y-92620726D01*
X145723513Y-92984585D01*
X146672325Y-92985413D01*
X147549229Y-92623084D01*
X147711809Y-92460787D01*
X154685852Y-92460787D01*
X154903857Y-92988400D01*
X155307177Y-93392424D01*
X155421868Y-93440048D01*
X155367095Y-93462736D01*
X155292961Y-93708855D01*
X156121100Y-94536995D01*
X156949239Y-93708855D01*
X156875105Y-93462736D01*
X156816846Y-93441795D01*
X156932900Y-93393843D01*
X157336924Y-92990523D01*
X157555850Y-92463291D01*
X157556348Y-91892413D01*
X157338343Y-91364800D01*
X156935023Y-90960776D01*
X156407791Y-90741850D01*
X155836913Y-90741352D01*
X155309300Y-90959357D01*
X154905276Y-91362677D01*
X154686350Y-91889909D01*
X154685852Y-92460787D01*
X147711809Y-92460787D01*
X148220726Y-91952758D01*
X148584585Y-91076487D01*
X148585413Y-90127675D01*
X148223084Y-89250771D01*
X147552758Y-88579274D01*
X147385927Y-88510000D01*
X159320840Y-88510000D01*
X158984176Y-88846077D01*
X158765250Y-89373309D01*
X158764752Y-89944187D01*
X158982757Y-90471800D01*
X159386077Y-90875824D01*
X159516215Y-90929862D01*
X159388200Y-90982757D01*
X158984176Y-91386077D01*
X158765250Y-91913309D01*
X158764752Y-92484187D01*
X158982757Y-93011800D01*
X159386077Y-93415824D01*
X159500768Y-93463448D01*
X159445995Y-93486136D01*
X159371861Y-93732255D01*
X160200000Y-94560395D01*
X161028139Y-93732255D01*
X160954005Y-93486136D01*
X160895746Y-93465195D01*
X161011800Y-93417243D01*
X161415824Y-93013923D01*
X161634750Y-92486691D01*
X161635248Y-91915813D01*
X161417243Y-91388200D01*
X161013923Y-90984176D01*
X160883785Y-90930138D01*
X161011800Y-90877243D01*
X161415824Y-90473923D01*
X161634750Y-89946691D01*
X161635248Y-89375813D01*
X161439931Y-88903109D01*
X161647841Y-88997614D01*
X162079962Y-89547755D01*
X162290000Y-90297566D01*
X162290000Y-117317105D01*
X161952758Y-116979274D01*
X161076487Y-116615415D01*
X160871446Y-116615236D01*
X161011800Y-116557243D01*
X161415824Y-116153923D01*
X161634750Y-115626691D01*
X161635248Y-115055813D01*
X161417243Y-114528200D01*
X161013923Y-114124176D01*
X160883785Y-114070138D01*
X161011800Y-114017243D01*
X161415824Y-113613923D01*
X161634750Y-113086691D01*
X161635248Y-112515813D01*
X161417243Y-111988200D01*
X161013923Y-111584176D01*
X160899232Y-111536552D01*
X160954005Y-111513864D01*
X161028139Y-111267745D01*
X160200000Y-110439605D01*
X159371861Y-111267745D01*
X159445995Y-111513864D01*
X159504254Y-111534805D01*
X159388200Y-111582757D01*
X158984176Y-111986077D01*
X158765250Y-112513309D01*
X158764752Y-113084187D01*
X158982757Y-113611800D01*
X159386077Y-114015824D01*
X159516215Y-114069862D01*
X159388200Y-114122757D01*
X158984176Y-114526077D01*
X158765250Y-115053309D01*
X158764752Y-115624187D01*
X158982757Y-116151800D01*
X159386077Y-116555824D01*
X159826894Y-116738867D01*
X159250771Y-116976916D01*
X158579274Y-117647242D01*
X158215415Y-118523513D01*
X158214587Y-119472325D01*
X158576916Y-120349229D01*
X159247242Y-121020726D01*
X160123513Y-121384585D01*
X160856810Y-121385225D01*
X160330069Y-121490000D01*
X156554971Y-121490000D01*
X156932900Y-121333843D01*
X157336924Y-120930523D01*
X157555850Y-120403291D01*
X157556348Y-119832413D01*
X157338343Y-119304800D01*
X156935023Y-118900776D01*
X156804885Y-118846738D01*
X156932900Y-118793843D01*
X157336924Y-118390523D01*
X157555850Y-117863291D01*
X157556348Y-117292413D01*
X157338343Y-116764800D01*
X156935023Y-116360776D01*
X156804885Y-116306738D01*
X156932900Y-116253843D01*
X157336924Y-115850523D01*
X157555850Y-115323291D01*
X157556348Y-114752413D01*
X157338343Y-114224800D01*
X156935023Y-113820776D01*
X156804885Y-113766738D01*
X156932900Y-113713843D01*
X157336924Y-113310523D01*
X157555850Y-112783291D01*
X157556348Y-112212413D01*
X157338343Y-111684800D01*
X156935023Y-111280776D01*
X156804885Y-111226738D01*
X156932900Y-111173843D01*
X157336924Y-110770523D01*
X157555850Y-110243291D01*
X157556024Y-110043223D01*
X158753035Y-110043223D01*
X158780222Y-110613454D01*
X158946136Y-111014005D01*
X159192255Y-111088139D01*
X160020395Y-110260000D01*
X160379605Y-110260000D01*
X161207745Y-111088139D01*
X161453864Y-111014005D01*
X161646965Y-110476777D01*
X161619778Y-109906546D01*
X161453864Y-109505995D01*
X161207745Y-109431861D01*
X160379605Y-110260000D01*
X160020395Y-110260000D01*
X159192255Y-109431861D01*
X158946136Y-109505995D01*
X158753035Y-110043223D01*
X157556024Y-110043223D01*
X157556348Y-109672413D01*
X157382743Y-109252255D01*
X159371861Y-109252255D01*
X160200000Y-110080395D01*
X161028139Y-109252255D01*
X160954005Y-109006136D01*
X160416777Y-108813035D01*
X159846546Y-108840222D01*
X159445995Y-109006136D01*
X159371861Y-109252255D01*
X157382743Y-109252255D01*
X157338343Y-109144800D01*
X156935023Y-108740776D01*
X156804885Y-108686738D01*
X156932900Y-108633843D01*
X157336924Y-108230523D01*
X157555850Y-107703291D01*
X157556348Y-107132413D01*
X157482707Y-106954187D01*
X158764752Y-106954187D01*
X158982757Y-107481800D01*
X159386077Y-107885824D01*
X159913309Y-108104750D01*
X160484187Y-108105248D01*
X161011800Y-107887243D01*
X161415824Y-107483923D01*
X161634750Y-106956691D01*
X161635248Y-106385813D01*
X161417243Y-105858200D01*
X161013923Y-105454176D01*
X160899232Y-105406552D01*
X160954005Y-105383864D01*
X161028139Y-105137745D01*
X160200000Y-104309605D01*
X159371861Y-105137745D01*
X159445995Y-105383864D01*
X159504254Y-105404805D01*
X159388200Y-105452757D01*
X158984176Y-105856077D01*
X158765250Y-106383309D01*
X158764752Y-106954187D01*
X157482707Y-106954187D01*
X157338343Y-106604800D01*
X156935023Y-106200776D01*
X156804885Y-106146738D01*
X156932900Y-106093843D01*
X157336924Y-105690523D01*
X157555850Y-105163291D01*
X157556348Y-104592413D01*
X157338343Y-104064800D01*
X157187031Y-103913223D01*
X158753035Y-103913223D01*
X158780222Y-104483454D01*
X158946136Y-104884005D01*
X159192255Y-104958139D01*
X160020395Y-104130000D01*
X160379605Y-104130000D01*
X161207745Y-104958139D01*
X161453864Y-104884005D01*
X161646965Y-104346777D01*
X161619778Y-103776546D01*
X161453864Y-103375995D01*
X161207745Y-103301861D01*
X160379605Y-104130000D01*
X160020395Y-104130000D01*
X159192255Y-103301861D01*
X158946136Y-103375995D01*
X158753035Y-103913223D01*
X157187031Y-103913223D01*
X156935023Y-103660776D01*
X156804885Y-103606738D01*
X156932900Y-103553843D01*
X157336924Y-103150523D01*
X157348661Y-103122255D01*
X159371861Y-103122255D01*
X160200000Y-103950395D01*
X161028139Y-103122255D01*
X160954005Y-102876136D01*
X160416777Y-102683035D01*
X159846546Y-102710222D01*
X159445995Y-102876136D01*
X159371861Y-103122255D01*
X157348661Y-103122255D01*
X157555850Y-102623291D01*
X157556348Y-102052413D01*
X157338343Y-101524800D01*
X156935023Y-101120776D01*
X156804885Y-101066738D01*
X156932900Y-101013843D01*
X157336924Y-100610523D01*
X157555850Y-100083291D01*
X157556348Y-99512413D01*
X157338343Y-98984800D01*
X156935023Y-98580776D01*
X156804885Y-98526738D01*
X156932900Y-98473843D01*
X157336924Y-98070523D01*
X157555850Y-97543291D01*
X157555934Y-97446775D01*
X159064803Y-97446775D01*
X159237233Y-97864086D01*
X159483867Y-98111151D01*
X159238355Y-98356235D01*
X159065197Y-98773244D01*
X159064803Y-99224775D01*
X159237233Y-99642086D01*
X159483867Y-99889151D01*
X159238355Y-100134235D01*
X159065197Y-100551244D01*
X159064803Y-101002775D01*
X159237233Y-101420086D01*
X159556235Y-101739645D01*
X159973244Y-101912803D01*
X160424775Y-101913197D01*
X160842086Y-101740767D01*
X161161645Y-101421765D01*
X161334803Y-101004756D01*
X161335197Y-100553225D01*
X161162767Y-100135914D01*
X160916133Y-99888849D01*
X161161645Y-99643765D01*
X161334803Y-99226756D01*
X161335197Y-98775225D01*
X161162767Y-98357914D01*
X160916133Y-98110849D01*
X161161645Y-97865765D01*
X161334803Y-97448756D01*
X161335197Y-96997225D01*
X161162767Y-96579914D01*
X160843765Y-96260355D01*
X160577532Y-96149805D01*
X160954005Y-95993864D01*
X161028139Y-95747745D01*
X160200000Y-94919605D01*
X159371861Y-95747745D01*
X159445995Y-95993864D01*
X159849308Y-96138831D01*
X159557914Y-96259233D01*
X159238355Y-96578235D01*
X159065197Y-96995244D01*
X159064803Y-97446775D01*
X157555934Y-97446775D01*
X157556348Y-96972413D01*
X157338343Y-96444800D01*
X156935023Y-96040776D01*
X156820332Y-95993152D01*
X156875105Y-95970464D01*
X156949239Y-95724345D01*
X156121100Y-94896205D01*
X155292961Y-95724345D01*
X155367095Y-95970464D01*
X155425354Y-95991405D01*
X155309300Y-96039357D01*
X154905276Y-96442677D01*
X154686350Y-96969909D01*
X154685852Y-97540787D01*
X154903857Y-98068400D01*
X155307177Y-98472424D01*
X155437315Y-98526462D01*
X155309300Y-98579357D01*
X154905276Y-98982677D01*
X154686350Y-99509909D01*
X154685852Y-100080787D01*
X154903857Y-100608400D01*
X155307177Y-101012424D01*
X155437315Y-101066462D01*
X155309300Y-101119357D01*
X154905276Y-101522677D01*
X154686350Y-102049909D01*
X154685852Y-102620787D01*
X154903857Y-103148400D01*
X155307177Y-103552424D01*
X155437315Y-103606462D01*
X155309300Y-103659357D01*
X154905276Y-104062677D01*
X154686350Y-104589909D01*
X154685852Y-105160787D01*
X154903857Y-105688400D01*
X155307177Y-106092424D01*
X155437315Y-106146462D01*
X155309300Y-106199357D01*
X154905276Y-106602677D01*
X154686350Y-107129909D01*
X154685852Y-107700787D01*
X154903857Y-108228400D01*
X155307177Y-108632424D01*
X155437315Y-108686462D01*
X155309300Y-108739357D01*
X154905276Y-109142677D01*
X154686350Y-109669909D01*
X154685852Y-110240787D01*
X154903857Y-110768400D01*
X155307177Y-111172424D01*
X155437315Y-111226462D01*
X155309300Y-111279357D01*
X154905276Y-111682677D01*
X154686350Y-112209909D01*
X154685852Y-112780787D01*
X154903857Y-113308400D01*
X155307177Y-113712424D01*
X155437315Y-113766462D01*
X155309300Y-113819357D01*
X154905276Y-114222677D01*
X154686350Y-114749909D01*
X154685852Y-115320787D01*
X154903857Y-115848400D01*
X155307177Y-116252424D01*
X155437315Y-116306462D01*
X155309300Y-116359357D01*
X154905276Y-116762677D01*
X154686350Y-117289909D01*
X154685852Y-117860787D01*
X154903857Y-118388400D01*
X155307177Y-118792424D01*
X155437315Y-118846462D01*
X155309300Y-118899357D01*
X154905276Y-119302677D01*
X154686350Y-119829909D01*
X154685852Y-120400787D01*
X154903857Y-120928400D01*
X155307177Y-121332424D01*
X155686662Y-121490000D01*
X141314971Y-121490000D01*
X141692900Y-121333843D01*
X142096924Y-120930523D01*
X142315850Y-120403291D01*
X142316348Y-119832413D01*
X142098343Y-119304800D01*
X141695023Y-118900776D01*
X141564885Y-118846738D01*
X141692900Y-118793843D01*
X142096924Y-118390523D01*
X142315850Y-117863291D01*
X142316348Y-117292413D01*
X142098343Y-116764800D01*
X141695023Y-116360776D01*
X141564885Y-116306738D01*
X141692900Y-116253843D01*
X142096924Y-115850523D01*
X142315850Y-115323291D01*
X142316348Y-114752413D01*
X142098343Y-114224800D01*
X141695023Y-113820776D01*
X141564885Y-113766738D01*
X141692900Y-113713843D01*
X142096924Y-113310523D01*
X142315850Y-112783291D01*
X142316348Y-112212413D01*
X142098343Y-111684800D01*
X141695023Y-111280776D01*
X141564885Y-111226738D01*
X141692900Y-111173843D01*
X142096924Y-110770523D01*
X142315850Y-110243291D01*
X142316348Y-109672413D01*
X142098343Y-109144800D01*
X141695023Y-108740776D01*
X141564885Y-108686738D01*
X141692900Y-108633843D01*
X142096924Y-108230523D01*
X142315850Y-107703291D01*
X142316348Y-107132413D01*
X142098343Y-106604800D01*
X141695023Y-106200776D01*
X141564885Y-106146738D01*
X141692900Y-106093843D01*
X142096924Y-105690523D01*
X142315850Y-105163291D01*
X142316348Y-104592413D01*
X142098343Y-104064800D01*
X141695023Y-103660776D01*
X141564885Y-103606738D01*
X141692900Y-103553843D01*
X142096924Y-103150523D01*
X142315850Y-102623291D01*
X142316348Y-102052413D01*
X142098343Y-101524800D01*
X141695023Y-101120776D01*
X141564885Y-101066738D01*
X141692900Y-101013843D01*
X142096924Y-100610523D01*
X142315850Y-100083291D01*
X142316348Y-99512413D01*
X142098343Y-98984800D01*
X141695023Y-98580776D01*
X141564885Y-98526738D01*
X141692900Y-98473843D01*
X142096924Y-98070523D01*
X142315850Y-97543291D01*
X142316348Y-96972413D01*
X142098343Y-96444800D01*
X141695023Y-96040776D01*
X141564885Y-95986738D01*
X141692900Y-95933843D01*
X142096924Y-95530523D01*
X142315850Y-95003291D01*
X142316289Y-94499823D01*
X154674135Y-94499823D01*
X154701322Y-95070054D01*
X154867236Y-95470605D01*
X155113355Y-95544739D01*
X155941495Y-94716600D01*
X156300705Y-94716600D01*
X157128845Y-95544739D01*
X157374964Y-95470605D01*
X157568065Y-94933377D01*
X157548511Y-94523223D01*
X158753035Y-94523223D01*
X158780222Y-95093454D01*
X158946136Y-95494005D01*
X159192255Y-95568139D01*
X160020395Y-94740000D01*
X160379605Y-94740000D01*
X161207745Y-95568139D01*
X161453864Y-95494005D01*
X161646965Y-94956777D01*
X161619778Y-94386546D01*
X161453864Y-93985995D01*
X161207745Y-93911861D01*
X160379605Y-94740000D01*
X160020395Y-94740000D01*
X159192255Y-93911861D01*
X158946136Y-93985995D01*
X158753035Y-94523223D01*
X157548511Y-94523223D01*
X157540878Y-94363146D01*
X157374964Y-93962595D01*
X157128845Y-93888461D01*
X156300705Y-94716600D01*
X155941495Y-94716600D01*
X155113355Y-93888461D01*
X154867236Y-93962595D01*
X154674135Y-94499823D01*
X142316289Y-94499823D01*
X142316348Y-94432413D01*
X142098343Y-93904800D01*
X141695023Y-93500776D01*
X141564885Y-93446738D01*
X141692900Y-93393843D01*
X142096924Y-92990523D01*
X142315850Y-92463291D01*
X142316348Y-91892413D01*
X142098343Y-91364800D01*
X141695023Y-90960776D01*
X141167791Y-90741850D01*
X140596913Y-90741352D01*
X140069300Y-90959357D01*
X139665276Y-91362677D01*
X139510000Y-91736623D01*
X139510000Y-88510000D01*
X145012720Y-88510000D01*
X144850771Y-88576916D01*
X144850771Y-88576916D01*
G37*
X144850771Y-88576916D02*
X144179274Y-89247242D01*
X143815415Y-90123513D01*
X143814587Y-91072325D01*
X144176916Y-91949229D01*
X144847242Y-92620726D01*
X145723513Y-92984585D01*
X146672325Y-92985413D01*
X147549229Y-92623084D01*
X147711809Y-92460787D01*
X154685852Y-92460787D01*
X154903857Y-92988400D01*
X155307177Y-93392424D01*
X155421868Y-93440048D01*
X155367095Y-93462736D01*
X155292961Y-93708855D01*
X156121100Y-94536995D01*
X156949239Y-93708855D01*
X156875105Y-93462736D01*
X156816846Y-93441795D01*
X156932900Y-93393843D01*
X157336924Y-92990523D01*
X157555850Y-92463291D01*
X157556348Y-91892413D01*
X157338343Y-91364800D01*
X156935023Y-90960776D01*
X156407791Y-90741850D01*
X155836913Y-90741352D01*
X155309300Y-90959357D01*
X154905276Y-91362677D01*
X154686350Y-91889909D01*
X154685852Y-92460787D01*
X147711809Y-92460787D01*
X148220726Y-91952758D01*
X148584585Y-91076487D01*
X148585413Y-90127675D01*
X148223084Y-89250771D01*
X147552758Y-88579274D01*
X147385927Y-88510000D01*
X159320840Y-88510000D01*
X158984176Y-88846077D01*
X158765250Y-89373309D01*
X158764752Y-89944187D01*
X158982757Y-90471800D01*
X159386077Y-90875824D01*
X159516215Y-90929862D01*
X159388200Y-90982757D01*
X158984176Y-91386077D01*
X158765250Y-91913309D01*
X158764752Y-92484187D01*
X158982757Y-93011800D01*
X159386077Y-93415824D01*
X159500768Y-93463448D01*
X159445995Y-93486136D01*
X159371861Y-93732255D01*
X160200000Y-94560395D01*
X161028139Y-93732255D01*
X160954005Y-93486136D01*
X160895746Y-93465195D01*
X161011800Y-93417243D01*
X161415824Y-93013923D01*
X161634750Y-92486691D01*
X161635248Y-91915813D01*
X161417243Y-91388200D01*
X161013923Y-90984176D01*
X160883785Y-90930138D01*
X161011800Y-90877243D01*
X161415824Y-90473923D01*
X161634750Y-89946691D01*
X161635248Y-89375813D01*
X161439931Y-88903109D01*
X161647841Y-88997614D01*
X162079962Y-89547755D01*
X162290000Y-90297566D01*
X162290000Y-117317105D01*
X161952758Y-116979274D01*
X161076487Y-116615415D01*
X160871446Y-116615236D01*
X161011800Y-116557243D01*
X161415824Y-116153923D01*
X161634750Y-115626691D01*
X161635248Y-115055813D01*
X161417243Y-114528200D01*
X161013923Y-114124176D01*
X160883785Y-114070138D01*
X161011800Y-114017243D01*
X161415824Y-113613923D01*
X161634750Y-113086691D01*
X161635248Y-112515813D01*
X161417243Y-111988200D01*
X161013923Y-111584176D01*
X160899232Y-111536552D01*
X160954005Y-111513864D01*
X161028139Y-111267745D01*
X160200000Y-110439605D01*
X159371861Y-111267745D01*
X159445995Y-111513864D01*
X159504254Y-111534805D01*
X159388200Y-111582757D01*
X158984176Y-111986077D01*
X158765250Y-112513309D01*
X158764752Y-113084187D01*
X158982757Y-113611800D01*
X159386077Y-114015824D01*
X159516215Y-114069862D01*
X159388200Y-114122757D01*
X158984176Y-114526077D01*
X158765250Y-115053309D01*
X158764752Y-115624187D01*
X158982757Y-116151800D01*
X159386077Y-116555824D01*
X159826894Y-116738867D01*
X159250771Y-116976916D01*
X158579274Y-117647242D01*
X158215415Y-118523513D01*
X158214587Y-119472325D01*
X158576916Y-120349229D01*
X159247242Y-121020726D01*
X160123513Y-121384585D01*
X160856810Y-121385225D01*
X160330069Y-121490000D01*
X156554971Y-121490000D01*
X156932900Y-121333843D01*
X157336924Y-120930523D01*
X157555850Y-120403291D01*
X157556348Y-119832413D01*
X157338343Y-119304800D01*
X156935023Y-118900776D01*
X156804885Y-118846738D01*
X156932900Y-118793843D01*
X157336924Y-118390523D01*
X157555850Y-117863291D01*
X157556348Y-117292413D01*
X157338343Y-116764800D01*
X156935023Y-116360776D01*
X156804885Y-116306738D01*
X156932900Y-116253843D01*
X157336924Y-115850523D01*
X157555850Y-115323291D01*
X157556348Y-114752413D01*
X157338343Y-114224800D01*
X156935023Y-113820776D01*
X156804885Y-113766738D01*
X156932900Y-113713843D01*
X157336924Y-113310523D01*
X157555850Y-112783291D01*
X157556348Y-112212413D01*
X157338343Y-111684800D01*
X156935023Y-111280776D01*
X156804885Y-111226738D01*
X156932900Y-111173843D01*
X157336924Y-110770523D01*
X157555850Y-110243291D01*
X157556024Y-110043223D01*
X158753035Y-110043223D01*
X158780222Y-110613454D01*
X158946136Y-111014005D01*
X159192255Y-111088139D01*
X160020395Y-110260000D01*
X160379605Y-110260000D01*
X161207745Y-111088139D01*
X161453864Y-111014005D01*
X161646965Y-110476777D01*
X161619778Y-109906546D01*
X161453864Y-109505995D01*
X161207745Y-109431861D01*
X160379605Y-110260000D01*
X160020395Y-110260000D01*
X159192255Y-109431861D01*
X158946136Y-109505995D01*
X158753035Y-110043223D01*
X157556024Y-110043223D01*
X157556348Y-109672413D01*
X157382743Y-109252255D01*
X159371861Y-109252255D01*
X160200000Y-110080395D01*
X161028139Y-109252255D01*
X160954005Y-109006136D01*
X160416777Y-108813035D01*
X159846546Y-108840222D01*
X159445995Y-109006136D01*
X159371861Y-109252255D01*
X157382743Y-109252255D01*
X157338343Y-109144800D01*
X156935023Y-108740776D01*
X156804885Y-108686738D01*
X156932900Y-108633843D01*
X157336924Y-108230523D01*
X157555850Y-107703291D01*
X157556348Y-107132413D01*
X157482707Y-106954187D01*
X158764752Y-106954187D01*
X158982757Y-107481800D01*
X159386077Y-107885824D01*
X159913309Y-108104750D01*
X160484187Y-108105248D01*
X161011800Y-107887243D01*
X161415824Y-107483923D01*
X161634750Y-106956691D01*
X161635248Y-106385813D01*
X161417243Y-105858200D01*
X161013923Y-105454176D01*
X160899232Y-105406552D01*
X160954005Y-105383864D01*
X161028139Y-105137745D01*
X160200000Y-104309605D01*
X159371861Y-105137745D01*
X159445995Y-105383864D01*
X159504254Y-105404805D01*
X159388200Y-105452757D01*
X158984176Y-105856077D01*
X158765250Y-106383309D01*
X158764752Y-106954187D01*
X157482707Y-106954187D01*
X157338343Y-106604800D01*
X156935023Y-106200776D01*
X156804885Y-106146738D01*
X156932900Y-106093843D01*
X157336924Y-105690523D01*
X157555850Y-105163291D01*
X157556348Y-104592413D01*
X157338343Y-104064800D01*
X157187031Y-103913223D01*
X158753035Y-103913223D01*
X158780222Y-104483454D01*
X158946136Y-104884005D01*
X159192255Y-104958139D01*
X160020395Y-104130000D01*
X160379605Y-104130000D01*
X161207745Y-104958139D01*
X161453864Y-104884005D01*
X161646965Y-104346777D01*
X161619778Y-103776546D01*
X161453864Y-103375995D01*
X161207745Y-103301861D01*
X160379605Y-104130000D01*
X160020395Y-104130000D01*
X159192255Y-103301861D01*
X158946136Y-103375995D01*
X158753035Y-103913223D01*
X157187031Y-103913223D01*
X156935023Y-103660776D01*
X156804885Y-103606738D01*
X156932900Y-103553843D01*
X157336924Y-103150523D01*
X157348661Y-103122255D01*
X159371861Y-103122255D01*
X160200000Y-103950395D01*
X161028139Y-103122255D01*
X160954005Y-102876136D01*
X160416777Y-102683035D01*
X159846546Y-102710222D01*
X159445995Y-102876136D01*
X159371861Y-103122255D01*
X157348661Y-103122255D01*
X157555850Y-102623291D01*
X157556348Y-102052413D01*
X157338343Y-101524800D01*
X156935023Y-101120776D01*
X156804885Y-101066738D01*
X156932900Y-101013843D01*
X157336924Y-100610523D01*
X157555850Y-100083291D01*
X157556348Y-99512413D01*
X157338343Y-98984800D01*
X156935023Y-98580776D01*
X156804885Y-98526738D01*
X156932900Y-98473843D01*
X157336924Y-98070523D01*
X157555850Y-97543291D01*
X157555934Y-97446775D01*
X159064803Y-97446775D01*
X159237233Y-97864086D01*
X159483867Y-98111151D01*
X159238355Y-98356235D01*
X159065197Y-98773244D01*
X159064803Y-99224775D01*
X159237233Y-99642086D01*
X159483867Y-99889151D01*
X159238355Y-100134235D01*
X159065197Y-100551244D01*
X159064803Y-101002775D01*
X159237233Y-101420086D01*
X159556235Y-101739645D01*
X159973244Y-101912803D01*
X160424775Y-101913197D01*
X160842086Y-101740767D01*
X161161645Y-101421765D01*
X161334803Y-101004756D01*
X161335197Y-100553225D01*
X161162767Y-100135914D01*
X160916133Y-99888849D01*
X161161645Y-99643765D01*
X161334803Y-99226756D01*
X161335197Y-98775225D01*
X161162767Y-98357914D01*
X160916133Y-98110849D01*
X161161645Y-97865765D01*
X161334803Y-97448756D01*
X161335197Y-96997225D01*
X161162767Y-96579914D01*
X160843765Y-96260355D01*
X160577532Y-96149805D01*
X160954005Y-95993864D01*
X161028139Y-95747745D01*
X160200000Y-94919605D01*
X159371861Y-95747745D01*
X159445995Y-95993864D01*
X159849308Y-96138831D01*
X159557914Y-96259233D01*
X159238355Y-96578235D01*
X159065197Y-96995244D01*
X159064803Y-97446775D01*
X157555934Y-97446775D01*
X157556348Y-96972413D01*
X157338343Y-96444800D01*
X156935023Y-96040776D01*
X156820332Y-95993152D01*
X156875105Y-95970464D01*
X156949239Y-95724345D01*
X156121100Y-94896205D01*
X155292961Y-95724345D01*
X155367095Y-95970464D01*
X155425354Y-95991405D01*
X155309300Y-96039357D01*
X154905276Y-96442677D01*
X154686350Y-96969909D01*
X154685852Y-97540787D01*
X154903857Y-98068400D01*
X155307177Y-98472424D01*
X155437315Y-98526462D01*
X155309300Y-98579357D01*
X154905276Y-98982677D01*
X154686350Y-99509909D01*
X154685852Y-100080787D01*
X154903857Y-100608400D01*
X155307177Y-101012424D01*
X155437315Y-101066462D01*
X155309300Y-101119357D01*
X154905276Y-101522677D01*
X154686350Y-102049909D01*
X154685852Y-102620787D01*
X154903857Y-103148400D01*
X155307177Y-103552424D01*
X155437315Y-103606462D01*
X155309300Y-103659357D01*
X154905276Y-104062677D01*
X154686350Y-104589909D01*
X154685852Y-105160787D01*
X154903857Y-105688400D01*
X155307177Y-106092424D01*
X155437315Y-106146462D01*
X155309300Y-106199357D01*
X154905276Y-106602677D01*
X154686350Y-107129909D01*
X154685852Y-107700787D01*
X154903857Y-108228400D01*
X155307177Y-108632424D01*
X155437315Y-108686462D01*
X155309300Y-108739357D01*
X154905276Y-109142677D01*
X154686350Y-109669909D01*
X154685852Y-110240787D01*
X154903857Y-110768400D01*
X155307177Y-111172424D01*
X155437315Y-111226462D01*
X155309300Y-111279357D01*
X154905276Y-111682677D01*
X154686350Y-112209909D01*
X154685852Y-112780787D01*
X154903857Y-113308400D01*
X155307177Y-113712424D01*
X155437315Y-113766462D01*
X155309300Y-113819357D01*
X154905276Y-114222677D01*
X154686350Y-114749909D01*
X154685852Y-115320787D01*
X154903857Y-115848400D01*
X155307177Y-116252424D01*
X155437315Y-116306462D01*
X155309300Y-116359357D01*
X154905276Y-116762677D01*
X154686350Y-117289909D01*
X154685852Y-117860787D01*
X154903857Y-118388400D01*
X155307177Y-118792424D01*
X155437315Y-118846462D01*
X155309300Y-118899357D01*
X154905276Y-119302677D01*
X154686350Y-119829909D01*
X154685852Y-120400787D01*
X154903857Y-120928400D01*
X155307177Y-121332424D01*
X155686662Y-121490000D01*
X141314971Y-121490000D01*
X141692900Y-121333843D01*
X142096924Y-120930523D01*
X142315850Y-120403291D01*
X142316348Y-119832413D01*
X142098343Y-119304800D01*
X141695023Y-118900776D01*
X141564885Y-118846738D01*
X141692900Y-118793843D01*
X142096924Y-118390523D01*
X142315850Y-117863291D01*
X142316348Y-117292413D01*
X142098343Y-116764800D01*
X141695023Y-116360776D01*
X141564885Y-116306738D01*
X141692900Y-116253843D01*
X142096924Y-115850523D01*
X142315850Y-115323291D01*
X142316348Y-114752413D01*
X142098343Y-114224800D01*
X141695023Y-113820776D01*
X141564885Y-113766738D01*
X141692900Y-113713843D01*
X142096924Y-113310523D01*
X142315850Y-112783291D01*
X142316348Y-112212413D01*
X142098343Y-111684800D01*
X141695023Y-111280776D01*
X141564885Y-111226738D01*
X141692900Y-111173843D01*
X142096924Y-110770523D01*
X142315850Y-110243291D01*
X142316348Y-109672413D01*
X142098343Y-109144800D01*
X141695023Y-108740776D01*
X141564885Y-108686738D01*
X141692900Y-108633843D01*
X142096924Y-108230523D01*
X142315850Y-107703291D01*
X142316348Y-107132413D01*
X142098343Y-106604800D01*
X141695023Y-106200776D01*
X141564885Y-106146738D01*
X141692900Y-106093843D01*
X142096924Y-105690523D01*
X142315850Y-105163291D01*
X142316348Y-104592413D01*
X142098343Y-104064800D01*
X141695023Y-103660776D01*
X141564885Y-103606738D01*
X141692900Y-103553843D01*
X142096924Y-103150523D01*
X142315850Y-102623291D01*
X142316348Y-102052413D01*
X142098343Y-101524800D01*
X141695023Y-101120776D01*
X141564885Y-101066738D01*
X141692900Y-101013843D01*
X142096924Y-100610523D01*
X142315850Y-100083291D01*
X142316348Y-99512413D01*
X142098343Y-98984800D01*
X141695023Y-98580776D01*
X141564885Y-98526738D01*
X141692900Y-98473843D01*
X142096924Y-98070523D01*
X142315850Y-97543291D01*
X142316348Y-96972413D01*
X142098343Y-96444800D01*
X141695023Y-96040776D01*
X141564885Y-95986738D01*
X141692900Y-95933843D01*
X142096924Y-95530523D01*
X142315850Y-95003291D01*
X142316289Y-94499823D01*
X154674135Y-94499823D01*
X154701322Y-95070054D01*
X154867236Y-95470605D01*
X155113355Y-95544739D01*
X155941495Y-94716600D01*
X156300705Y-94716600D01*
X157128845Y-95544739D01*
X157374964Y-95470605D01*
X157568065Y-94933377D01*
X157548511Y-94523223D01*
X158753035Y-94523223D01*
X158780222Y-95093454D01*
X158946136Y-95494005D01*
X159192255Y-95568139D01*
X160020395Y-94740000D01*
X160379605Y-94740000D01*
X161207745Y-95568139D01*
X161453864Y-95494005D01*
X161646965Y-94956777D01*
X161619778Y-94386546D01*
X161453864Y-93985995D01*
X161207745Y-93911861D01*
X160379605Y-94740000D01*
X160020395Y-94740000D01*
X159192255Y-93911861D01*
X158946136Y-93985995D01*
X158753035Y-94523223D01*
X157548511Y-94523223D01*
X157540878Y-94363146D01*
X157374964Y-93962595D01*
X157128845Y-93888461D01*
X156300705Y-94716600D01*
X155941495Y-94716600D01*
X155113355Y-93888461D01*
X154867236Y-93962595D01*
X154674135Y-94499823D01*
X142316289Y-94499823D01*
X142316348Y-94432413D01*
X142098343Y-93904800D01*
X141695023Y-93500776D01*
X141564885Y-93446738D01*
X141692900Y-93393843D01*
X142096924Y-92990523D01*
X142315850Y-92463291D01*
X142316348Y-91892413D01*
X142098343Y-91364800D01*
X141695023Y-90960776D01*
X141167791Y-90741850D01*
X140596913Y-90741352D01*
X140069300Y-90959357D01*
X139665276Y-91362677D01*
X139510000Y-91736623D01*
X139510000Y-88510000D01*
X145012720Y-88510000D01*
X144850771Y-88576916D01*
M02*
