G04 #@! TF.FileFunction,Legend,Bot*
%FSLAX46Y46*%
G04 Gerber Fmt 4.6, Leading zero omitted, Abs format (unit mm)*
G04 Created by KiCad (PCBNEW 4.0.5+dfsg1-4) date Mon Jan 29 19:16:24 2018*
%MOMM*%
%LPD*%
G01*
G04 APERTURE LIST*
%ADD10C,0.100000*%
%ADD11C,0.300000*%
G04 APERTURE END LIST*
D10*
D11*
X152678571Y-100357144D02*
X152678571Y-99642858D01*
X151178571Y-99642858D01*
X152678571Y-101500001D02*
X151892857Y-101500001D01*
X151750000Y-101428572D01*
X151678571Y-101285715D01*
X151678571Y-101000001D01*
X151750000Y-100857144D01*
X152607143Y-101500001D02*
X152678571Y-101357144D01*
X152678571Y-101000001D01*
X152607143Y-100857144D01*
X152464286Y-100785715D01*
X152321429Y-100785715D01*
X152178571Y-100857144D01*
X152107143Y-101000001D01*
X152107143Y-101357144D01*
X152035714Y-101500001D01*
X152607143Y-102142858D02*
X152678571Y-102285715D01*
X152678571Y-102571430D01*
X152607143Y-102714287D01*
X152464286Y-102785715D01*
X152392857Y-102785715D01*
X152250000Y-102714287D01*
X152178571Y-102571430D01*
X152178571Y-102357144D01*
X152107143Y-102214287D01*
X151964286Y-102142858D01*
X151892857Y-102142858D01*
X151750000Y-102214287D01*
X151678571Y-102357144D01*
X151678571Y-102571430D01*
X151750000Y-102714287D01*
X152607143Y-104000001D02*
X152678571Y-103857144D01*
X152678571Y-103571430D01*
X152607143Y-103428573D01*
X152464286Y-103357144D01*
X151892857Y-103357144D01*
X151750000Y-103428573D01*
X151678571Y-103571430D01*
X151678571Y-103857144D01*
X151750000Y-104000001D01*
X151892857Y-104071430D01*
X152035714Y-104071430D01*
X152178571Y-103357144D01*
X152678571Y-104714287D02*
X151678571Y-104714287D01*
X151964286Y-104714287D02*
X151821429Y-104785715D01*
X151750000Y-104857144D01*
X151678571Y-105000001D01*
X151678571Y-105142858D01*
X152821429Y-105285715D02*
X152821429Y-106428572D01*
X152678571Y-107428572D02*
X151892857Y-107428572D01*
X151750000Y-107357143D01*
X151678571Y-107214286D01*
X151678571Y-106928572D01*
X151750000Y-106785715D01*
X152607143Y-107428572D02*
X152678571Y-107285715D01*
X152678571Y-106928572D01*
X152607143Y-106785715D01*
X152464286Y-106714286D01*
X152321429Y-106714286D01*
X152178571Y-106785715D01*
X152107143Y-106928572D01*
X152107143Y-107285715D01*
X152035714Y-107428572D01*
X152678571Y-108142858D02*
X151678571Y-108142858D01*
X151964286Y-108142858D02*
X151821429Y-108214286D01*
X151750000Y-108285715D01*
X151678571Y-108428572D01*
X151678571Y-108571429D01*
X152678571Y-109071429D02*
X151678571Y-109071429D01*
X151821429Y-109071429D02*
X151750000Y-109142857D01*
X151678571Y-109285715D01*
X151678571Y-109500000D01*
X151750000Y-109642857D01*
X151892857Y-109714286D01*
X152678571Y-109714286D01*
X151892857Y-109714286D02*
X151750000Y-109785715D01*
X151678571Y-109928572D01*
X151678571Y-110142857D01*
X151750000Y-110285715D01*
X151892857Y-110357143D01*
X152678571Y-110357143D01*
X145492857Y-95178573D02*
X145492857Y-94678573D01*
X146278571Y-94678573D02*
X144778571Y-94678573D01*
X144778571Y-95392859D01*
X146278571Y-96607144D02*
X145492857Y-96607144D01*
X145350000Y-96535715D01*
X145278571Y-96392858D01*
X145278571Y-96107144D01*
X145350000Y-95964287D01*
X146207143Y-96607144D02*
X146278571Y-96464287D01*
X146278571Y-96107144D01*
X146207143Y-95964287D01*
X146064286Y-95892858D01*
X145921429Y-95892858D01*
X145778571Y-95964287D01*
X145707143Y-96107144D01*
X145707143Y-96464287D01*
X145635714Y-96607144D01*
X146207143Y-97964287D02*
X146278571Y-97821430D01*
X146278571Y-97535716D01*
X146207143Y-97392858D01*
X146135714Y-97321430D01*
X145992857Y-97250001D01*
X145564286Y-97250001D01*
X145421429Y-97321430D01*
X145350000Y-97392858D01*
X145278571Y-97535716D01*
X145278571Y-97821430D01*
X145350000Y-97964287D01*
X146207143Y-99178572D02*
X146278571Y-99035715D01*
X146278571Y-98750001D01*
X146207143Y-98607144D01*
X146064286Y-98535715D01*
X145492857Y-98535715D01*
X145350000Y-98607144D01*
X145278571Y-98750001D01*
X145278571Y-99035715D01*
X145350000Y-99178572D01*
X145492857Y-99250001D01*
X145635714Y-99250001D01*
X145778571Y-98535715D01*
X146278571Y-100107144D02*
X146207143Y-99964286D01*
X146064286Y-99892858D01*
X144778571Y-99892858D01*
X146207143Y-101250000D02*
X146278571Y-101107143D01*
X146278571Y-100821429D01*
X146207143Y-100678572D01*
X146064286Y-100607143D01*
X145492857Y-100607143D01*
X145350000Y-100678572D01*
X145278571Y-100821429D01*
X145278571Y-101107143D01*
X145350000Y-101250000D01*
X145492857Y-101321429D01*
X145635714Y-101321429D01*
X145778571Y-100607143D01*
X146207143Y-101892857D02*
X146278571Y-102035714D01*
X146278571Y-102321429D01*
X146207143Y-102464286D01*
X146064286Y-102535714D01*
X145992857Y-102535714D01*
X145850000Y-102464286D01*
X145778571Y-102321429D01*
X145778571Y-102107143D01*
X145707143Y-101964286D01*
X145564286Y-101892857D01*
X145492857Y-101892857D01*
X145350000Y-101964286D01*
X145278571Y-102107143D01*
X145278571Y-102321429D01*
X145350000Y-102464286D01*
X146207143Y-103107143D02*
X146278571Y-103250000D01*
X146278571Y-103535715D01*
X146207143Y-103678572D01*
X146064286Y-103750000D01*
X145992857Y-103750000D01*
X145850000Y-103678572D01*
X145778571Y-103535715D01*
X145778571Y-103321429D01*
X145707143Y-103178572D01*
X145564286Y-103107143D01*
X145492857Y-103107143D01*
X145350000Y-103178572D01*
X145278571Y-103321429D01*
X145278571Y-103535715D01*
X145350000Y-103678572D01*
X145278571Y-104178572D02*
X145278571Y-104750001D01*
X144778571Y-104392858D02*
X146064286Y-104392858D01*
X146207143Y-104464286D01*
X146278571Y-104607144D01*
X146278571Y-104750001D01*
X146207143Y-105821429D02*
X146278571Y-105678572D01*
X146278571Y-105392858D01*
X146207143Y-105250001D01*
X146064286Y-105178572D01*
X145492857Y-105178572D01*
X145350000Y-105250001D01*
X145278571Y-105392858D01*
X145278571Y-105678572D01*
X145350000Y-105821429D01*
X145492857Y-105892858D01*
X145635714Y-105892858D01*
X145778571Y-105178572D01*
X146207143Y-107178572D02*
X146278571Y-107035715D01*
X146278571Y-106750001D01*
X146207143Y-106607143D01*
X146135714Y-106535715D01*
X145992857Y-106464286D01*
X145564286Y-106464286D01*
X145421429Y-106535715D01*
X145350000Y-106607143D01*
X145278571Y-106750001D01*
X145278571Y-107035715D01*
X145350000Y-107178572D01*
X146278571Y-107821429D02*
X144778571Y-107821429D01*
X146278571Y-108464286D02*
X145492857Y-108464286D01*
X145350000Y-108392857D01*
X145278571Y-108250000D01*
X145278571Y-108035715D01*
X145350000Y-107892857D01*
X145421429Y-107821429D01*
X144921429Y-110250000D02*
X144850000Y-110321429D01*
X144778571Y-110464286D01*
X144778571Y-110821429D01*
X144850000Y-110964286D01*
X144921429Y-111035715D01*
X145064286Y-111107143D01*
X145207143Y-111107143D01*
X145421429Y-111035715D01*
X146278571Y-110178572D01*
X146278571Y-111107143D01*
X144778571Y-112035714D02*
X144778571Y-112178571D01*
X144850000Y-112321428D01*
X144921429Y-112392857D01*
X145064286Y-112464286D01*
X145350000Y-112535714D01*
X145707143Y-112535714D01*
X145992857Y-112464286D01*
X146135714Y-112392857D01*
X146207143Y-112321428D01*
X146278571Y-112178571D01*
X146278571Y-112035714D01*
X146207143Y-111892857D01*
X146135714Y-111821428D01*
X145992857Y-111750000D01*
X145707143Y-111678571D01*
X145350000Y-111678571D01*
X145064286Y-111750000D01*
X144921429Y-111821428D01*
X144850000Y-111892857D01*
X144778571Y-112035714D01*
X146278571Y-113964285D02*
X146278571Y-113107142D01*
X146278571Y-113535714D02*
X144778571Y-113535714D01*
X144992857Y-113392857D01*
X145135714Y-113249999D01*
X145207143Y-113107142D01*
X145421429Y-114821428D02*
X145350000Y-114678570D01*
X145278571Y-114607142D01*
X145135714Y-114535713D01*
X145064286Y-114535713D01*
X144921429Y-114607142D01*
X144850000Y-114678570D01*
X144778571Y-114821428D01*
X144778571Y-115107142D01*
X144850000Y-115249999D01*
X144921429Y-115321428D01*
X145064286Y-115392856D01*
X145135714Y-115392856D01*
X145278571Y-115321428D01*
X145350000Y-115249999D01*
X145421429Y-115107142D01*
X145421429Y-114821428D01*
X145492857Y-114678570D01*
X145564286Y-114607142D01*
X145707143Y-114535713D01*
X145992857Y-114535713D01*
X146135714Y-114607142D01*
X146207143Y-114678570D01*
X146278571Y-114821428D01*
X146278571Y-115107142D01*
X146207143Y-115249999D01*
X146135714Y-115321428D01*
X145992857Y-115392856D01*
X145707143Y-115392856D01*
X145564286Y-115321428D01*
X145492857Y-115249999D01*
X145421429Y-115107142D01*
M02*
