M48
METRIC,TZ
T1C0.600
T2C1.000
T3C3.000
%
G90
G05
T1
X160200Y-97222
X160200Y-99000
X160200Y-100778
T2
X140881Y-92177
X140881Y-94717
X140881Y-97257
X140881Y-99797
X140881Y-102337
X140881Y-104877
X140881Y-107417
X140881Y-109957
X140881Y-112497
X140881Y-115037
X140881Y-117577
X140881Y-120117
X156121Y-92177
X156121Y-94717
X156121Y-97257
X156121Y-99797
X156121Y-102337
X156121Y-104877
X156121Y-107417
X156121Y-109957
X156121Y-112497
X156121Y-115037
X156121Y-117577
X156121Y-120117
X160200Y-89660
X160200Y-92200
X160200Y-94740
X160200Y-104130
X160200Y-106670
X160200Y-110260
X160200Y-112800
X160200Y-115340
T3
X146200Y-90600
X160600Y-119000
T0
M30
